#Comment line ignore any data following # character 
#Hierarchical Translation and Rotation (.htr) file 
[Header]	
#Header keywords are followed by a single value 
FileType HTR		#Single word string
DataType HTRS		#Translation followed by rotation and scale data
FileVersion 1		#integer
NumSegments 84		#integer
NumFrames 2		#integer
DataFrameRate 30		#integer, data frame rate in this file
EulerRotationOrder ZYX
CalibrationUnits mm
RotationUnits Degrees
GlobalAxisofGravity Y
BoneLengthAxis Y
ScaleFactor 1.00
[SegmentNames&Hierarchy]
#CHILD	PARENT
MASTER GLOBAL
root MASTER
chest root
L_mid_tent01 root
R_mid_tent01 root
spine01 root
Bip01_Neck chest
L_humerus chest
R_humerus chest
weapon_bone chest
Bip01_Head Bip01_Neck
eye_left_bone Bip01_Head
eye_right_bone Bip01_Head
L_forearm L_humerus
L_front_hand L_forearm
L_weapon_bone L_forearm
L_front_hand01_01 L_front_hand
L_front_hand02_01 L_front_hand
L_front_hand03_01 L_front_hand
L_front_hand01_02 L_front_hand01_01
L_front_hand02_02 L_front_hand02_01
L_front_hand03_02 L_front_hand03_01
R_forearm R_humerus
R_front_hand R_forearm
R_weapon_bone R_forearm
R_front_hand01_01 R_front_hand
R_front_hand02_01 R_front_hand
R_front_hand03_01 R_front_hand
R_front_hand01_02 R_front_hand01_01
R_front_hand02_02 R_front_hand02_01
R_front_hand03_02 R_front_hand03_01
null_rope01_connect L_mid_tent01
Rope1_Seg01 null_rope01_connect
Rope1_Seg02 Rope1_Seg01
Rope1_Seg03 Rope1_Seg02
Rope1_Seg04 Rope1_Seg03
Rope1_Seg05 Rope1_Seg04
Rope1_Seg06 Rope1_Seg05
Rope1_Seg07 Rope1_Seg06
Rope1_Seg09 Rope1_Seg07
L_mid_hand01 Rope1_Seg09
L_mid_hand02 Rope1_Seg09
L_mid_hand03 Rope1_Seg09
null_rope02_connect R_mid_tent01
Rope2_Seg01 null_rope02_connect
Rope2_Seg02 Rope2_Seg01
Rope2_Seg03 Rope2_Seg02
Rope2_Seg04 Rope2_Seg03
Rope2_Seg05 Rope2_Seg04
Rope2_Seg06 Rope2_Seg05
Rope2_Seg07 Rope2_Seg06
Rope2_Seg09 Rope2_Seg07
R_mid_hand01 Rope2_Seg09
R_mid_hand02 Rope2_Seg09
R_mid_hand03 Rope2_Seg09
spine02 spine01
spine03 spine02
pelvis spine03
null_rope03_connect pelvis
null_rope04_connect pelvis
Rope3_Seg01 null_rope03_connect
Rope3_Seg02 Rope3_Seg01
Rope3_Seg03 Rope3_Seg02
Rope3_Seg04 Rope3_Seg03
Rope3_Seg05 Rope3_Seg04
Rope3_Seg06 Rope3_Seg05
Rope3_Seg07 Rope3_Seg06
Rope3_Seg08 Rope3_Seg07
Rope3_Seg09 Rope3_Seg08
R_rear_hand01 Rope3_Seg09
R_rear_hand02 Rope3_Seg09
R_rear_hand03 Rope3_Seg09
Rope4_Seg01 null_rope04_connect
Rope4_Seg02 Rope4_Seg01
Rope4_Seg03 Rope4_Seg02
Rope4_Seg04 Rope4_Seg03
Rope4_Seg05 Rope4_Seg04
Rope4_Seg06 Rope4_Seg05
Rope4_Seg07 Rope4_Seg06
Rope4_Seg08 Rope4_Seg07
Rope4_Seg09 Rope4_Seg08
L_rear_hand01 Rope4_Seg09
L_rear_hand02 Rope4_Seg09
L_rear_hand03 Rope4_Seg09
[BasePosition]
#SegmentName Tx, Ty, Tz, Rx, Ry, Rz, BoneLength
MASTER 0.000000 0.000000 0.000000 -90.000000 0.000000 0.000000 10.000000 
root 0.000000 0.000000 0.000000 0.000000 0.000000 0.000000 10.000000 
chest 0.000000 0.000000 0.000000 0.000000 0.000000 0.000000 10.000000 
L_mid_tent01 0.000000 0.000000 0.000000 0.000000 0.000000 0.000000 10.000000 
R_mid_tent01 0.000000 0.000000 0.000000 0.000000 0.000000 0.000000 10.000000 
spine01 0.000000 0.000000 0.000000 0.000000 0.000000 0.000000 10.000000 
Bip01_Neck 0.000000 0.000000 0.000000 0.000000 0.000000 0.000000 10.000000 
L_humerus 0.000000 0.000000 0.000000 0.000000 0.000000 0.000000 10.000000 
R_humerus 0.000000 0.000000 0.000000 0.000000 0.000000 0.000000 10.000000 
weapon_bone 0.000000 0.000000 0.000000 0.000000 0.000000 0.000000 10.000000 
Bip01_Head 0.000000 0.000000 0.000000 0.000000 0.000000 0.000000 10.000000 
eye_left_bone 0.000000 0.000000 0.000000 0.000000 0.000000 0.000000 10.000000 
eye_right_bone 0.000000 0.000000 0.000000 0.000000 0.000000 0.000000 10.000000 
L_forearm 0.000000 0.000000 0.000000 0.000000 0.000000 0.000000 10.000000 
L_front_hand 0.000000 0.000000 0.000000 0.000000 0.000000 0.000000 10.000000 
L_weapon_bone 0.000000 0.000000 0.000000 0.000000 0.000000 0.000000 10.000000 
L_front_hand01_01 0.000000 0.000000 0.000000 0.000000 0.000000 0.000000 10.000000 
L_front_hand02_01 0.000000 0.000000 0.000000 0.000000 0.000000 0.000000 10.000000 
L_front_hand03_01 0.000000 0.000000 0.000000 0.000000 0.000000 0.000000 10.000000 
L_front_hand01_02 0.000000 0.000000 0.000000 0.000000 0.000000 0.000000 10.000000 
L_front_hand02_02 0.000000 0.000000 0.000000 0.000000 0.000000 0.000000 10.000000 
L_front_hand03_02 0.000000 0.000000 0.000000 0.000000 0.000000 0.000000 10.000000 
R_forearm 0.000000 0.000000 0.000000 0.000000 0.000000 0.000000 10.000000 
R_front_hand 0.000000 0.000000 0.000000 0.000000 0.000000 0.000000 10.000000 
R_weapon_bone 0.000000 0.000000 0.000000 0.000000 0.000000 0.000000 10.000000 
R_front_hand01_01 0.000000 0.000000 0.000000 0.000000 0.000000 0.000000 10.000000 
R_front_hand02_01 0.000000 0.000000 0.000000 0.000000 0.000000 0.000000 10.000000 
R_front_hand03_01 0.000000 0.000000 0.000000 0.000000 0.000000 0.000000 10.000000 
R_front_hand01_02 0.000000 0.000000 0.000000 0.000000 0.000000 0.000000 10.000000 
R_front_hand02_02 0.000000 0.000000 0.000000 0.000000 0.000000 0.000000 10.000000 
R_front_hand03_02 0.000000 0.000000 0.000000 0.000000 0.000000 0.000000 10.000000 
null_rope01_connect 0.000000 0.000000 0.000000 0.000000 0.000000 0.000000 10.000000 
Rope1_Seg01 0.000000 0.000000 0.000000 0.000000 0.000000 0.000000 10.000000 
Rope1_Seg02 0.000000 0.000000 0.000000 0.000000 0.000000 0.000000 10.000000 
Rope1_Seg03 0.000000 0.000000 0.000000 0.000000 0.000000 0.000000 10.000000 
Rope1_Seg04 0.000000 0.000000 0.000000 0.000000 0.000000 0.000000 10.000000 
Rope1_Seg05 0.000000 0.000000 0.000000 0.000000 0.000000 0.000000 10.000000 
Rope1_Seg06 0.000000 0.000000 0.000000 0.000000 0.000000 0.000000 10.000000 
Rope1_Seg07 0.000000 0.000000 0.000000 0.000000 0.000000 0.000000 10.000000 
Rope1_Seg09 0.000000 0.000000 0.000000 0.000000 0.000000 0.000000 10.000000 
L_mid_hand01 0.000000 0.000000 0.000000 0.000000 0.000000 0.000000 10.000000 
L_mid_hand02 0.000000 0.000000 0.000000 0.000000 0.000000 0.000000 10.000000 
L_mid_hand03 0.000000 0.000000 0.000000 0.000000 0.000000 0.000000 10.000000 
null_rope02_connect 0.000000 0.000000 0.000000 0.000000 0.000000 0.000000 10.000000 
Rope2_Seg01 0.000000 0.000000 0.000000 0.000000 0.000000 0.000000 10.000000 
Rope2_Seg02 0.000000 0.000000 0.000000 0.000000 0.000000 0.000000 10.000000 
Rope2_Seg03 0.000000 0.000000 0.000000 0.000000 0.000000 0.000000 10.000000 
Rope2_Seg04 0.000000 0.000000 0.000000 0.000000 0.000000 0.000000 10.000000 
Rope2_Seg05 0.000000 0.000000 0.000000 0.000000 0.000000 0.000000 10.000000 
Rope2_Seg06 0.000000 0.000000 0.000000 0.000000 0.000000 0.000000 10.000000 
Rope2_Seg07 0.000000 0.000000 0.000000 0.000000 0.000000 0.000000 10.000000 
Rope2_Seg09 0.000000 0.000000 0.000000 0.000000 0.000000 0.000000 10.000000 
R_mid_hand01 0.000000 0.000000 0.000000 0.000000 0.000000 0.000000 10.000000 
R_mid_hand02 0.000000 0.000000 0.000000 0.000000 0.000000 0.000000 10.000000 
R_mid_hand03 0.000000 0.000000 0.000000 0.000000 0.000000 0.000000 10.000000 
spine02 0.000000 0.000000 0.000000 0.000000 0.000000 0.000000 10.000000 
spine03 0.000000 0.000000 0.000000 0.000000 0.000000 0.000000 10.000000 
pelvis 0.000000 0.000000 0.000000 0.000000 0.000000 0.000000 10.000000 
null_rope03_connect 0.000000 0.000000 0.000000 0.000000 0.000000 0.000000 10.000000 
null_rope04_connect 0.000000 0.000000 0.000000 0.000000 0.000000 0.000000 10.000000 
Rope3_Seg01 0.000000 0.000000 0.000000 0.000000 0.000000 0.000000 10.000000 
Rope3_Seg02 0.000000 0.000000 0.000000 0.000000 0.000000 0.000000 10.000000 
Rope3_Seg03 0.000000 0.000000 0.000000 0.000000 0.000000 0.000000 10.000000 
Rope3_Seg04 0.000000 0.000000 0.000000 0.000000 0.000000 0.000000 10.000000 
Rope3_Seg05 0.000000 0.000000 0.000000 0.000000 0.000000 0.000000 10.000000 
Rope3_Seg06 0.000000 0.000000 0.000000 0.000000 0.000000 0.000000 10.000000 
Rope3_Seg07 0.000000 0.000000 0.000000 0.000000 0.000000 0.000000 10.000000 
Rope3_Seg08 0.000000 0.000000 0.000000 0.000000 0.000000 0.000000 10.000000 
Rope3_Seg09 0.000000 0.000000 0.000000 0.000000 0.000000 0.000000 10.000000 
R_rear_hand01 0.000000 0.000000 0.000000 0.000000 0.000000 0.000000 10.000000 
R_rear_hand02 0.000000 0.000000 0.000000 0.000000 0.000000 0.000000 10.000000 
R_rear_hand03 0.000000 0.000000 0.000000 0.000000 0.000000 0.000000 10.000000 
Rope4_Seg01 0.000000 0.000000 0.000000 0.000000 0.000000 0.000000 10.000000 
Rope4_Seg02 0.000000 0.000000 0.000000 0.000000 0.000000 0.000000 10.000000 
Rope4_Seg03 0.000000 0.000000 0.000000 0.000000 0.000000 0.000000 10.000000 
Rope4_Seg04 0.000000 0.000000 0.000000 0.000000 0.000000 0.000000 10.000000 
Rope4_Seg05 0.000000 0.000000 0.000000 0.000000 0.000000 0.000000 10.000000 
Rope4_Seg06 0.000000 0.000000 0.000000 0.000000 0.000000 0.000000 10.000000 
Rope4_Seg07 0.000000 0.000000 0.000000 0.000000 0.000000 0.000000 10.000000 
Rope4_Seg08 0.000000 0.000000 0.000000 0.000000 0.000000 0.000000 10.000000 
Rope4_Seg09 0.000000 0.000000 0.000000 0.000000 0.000000 0.000000 10.000000 
L_rear_hand01 0.000000 0.000000 0.000000 0.000000 0.000000 0.000000 10.000000 
L_rear_hand02 0.000000 0.000000 0.000000 0.000000 0.000000 0.000000 10.000000 
L_rear_hand03 0.000000 0.000000 0.000000 0.000000 0.000000 0.000000 10.000000 
#Beginning of Data. Separated by tabs
#Fr	Tx	Ty	Tz	Rx	Ry	Rz	SF
[MASTER]
24 0.000000 0.000000 0.000000 0.001660 0.001660 0.001660 0.000000
25 0.000000 0.000000 0.000000 0.001660 0.001660 0.001660 0.000000
[root]
24 -12.400245 -62.747986 1498.136963 -91.739357 -25.930603 -90.216110 1499.501709
25 -11.347703 -62.755169 1498.965332 -91.727768 -26.215046 -90.204086 1500.321411
[chest]
24 -84.512650 -34.090519 0.000000 -4.883928 1.981831 -178.071045 91.129311
25 -84.512650 -34.090519 0.000000 -4.883928 1.981831 -178.071045 91.129311
[L_mid_tent01]
24 27.299557 22.177464 -249.917984 4.722823 36.138325 82.799217 252.380875
25 27.299553 22.177473 -249.917984 4.836538 36.123444 82.999924 252.380875
[R_mid_tent01]
24 23.228794 24.509907 226.238495 159.157547 -47.480633 89.344254 228.744751
25 23.228794 24.509907 226.238495 158.796127 -47.595287 89.747955 228.744751
[spine01]
24 -0.361383 -0.195265 0.000000 0.840989 0.446373 15.483044 0.410763
25 -0.361383 -0.195265 0.000000 0.840989 0.446373 15.483044 0.410763
[Bip01_Neck]
24 165.484543 71.581718 0.000119 175.896118 1.177290 24.871183 180.302734
25 165.484543 71.581718 0.000119 175.896118 1.177290 24.871183 180.302734
[L_humerus]
24 -13.983130 -135.272980 -120.471481 -176.726257 42.855461 -100.920883 181.680161
25 -13.983130 -135.272980 -120.471481 179.202484 59.809517 -108.154007 181.680161
[R_humerus]
24 -13.983309 -135.273102 125.287651 -173.695969 -46.856724 -109.765053 184.909012
25 -13.983309 -135.273102 125.287651 -163.999634 -60.294071 -122.848045 184.909012
[weapon_bone]
24 235.964890 -300.705902 0.000000 0.000000 -89.951546 -128.212341 382.234833
25 235.964890 -300.705902 0.000000 0.000000 -89.951546 -128.212341 382.234833
[Bip01_Head]
24 261.355835 108.959351 -2.864227 2.248029 5.843378 -62.458351 283.173492
25 261.355835 108.959358 -2.864225 2.248029 5.843377 -62.458344 283.173492
[eye_left_bone]
24 -24.626970 125.451866 -64.772606 0.000000 -90.000000 -99.840431 143.318359
25 -24.626970 125.451866 -64.772606 0.000000 -90.000000 -99.840431 143.318359
[eye_right_bone]
24 -24.626970 125.451866 64.327362 0.000000 -89.960434 80.159386 143.117676
25 -24.626970 125.451866 64.327362 0.000000 -89.960434 80.159386 143.117676
[L_forearm]
24 322.776093 0.000000 -0.000119 0.000290 0.002329 -75.810539 322.776093
25 322.776093 0.000000 -0.000119 0.000178 0.002340 -81.312279 322.776093
[L_front_hand]
24 241.149185 -0.042021 -3.300071 -179.528046 -2.218948 -3.500383 241.171753
25 241.149185 -0.042021 -3.300071 -179.403290 -2.186436 -6.681608 241.171753
[L_weapon_bone]
24 156.183838 0.000000 0.000000 0.002121 0.001006 39.246857 156.183838
25 156.183838 0.000000 0.000000 0.002126 0.000995 39.830181 156.183838
[L_front_hand01_01]
24 86.095154 20.947098 -0.655860 0.401603 -0.443779 -4.229479 88.609184
25 86.095154 20.947098 -0.655860 0.404476 -0.443321 -4.333419 88.609184
[L_front_hand02_01]
24 86.935165 -11.437475 24.513514 116.951881 3.287153 1.322773 91.046425
25 86.935165 -11.437475 24.513514 116.955177 3.367302 1.363696 91.046425
[L_front_hand03_01]
24 86.637497 -14.123976 -20.424902 -118.409706 -4.323246 -0.334702 90.126129
25 86.637497 -14.123976 -20.424902 -118.412201 -4.402915 -0.292789 90.126129
[L_front_hand01_02]
24 71.020905 -0.000179 0.000030 0.001534 0.001777 -8.378850 71.020905
25 71.020905 -0.000179 0.000030 0.001534 0.001777 -8.378850 71.020905
[L_front_hand02_02]
24 71.020927 -0.000119 0.000060 0.001534 0.001777 -8.378850 71.020927
25 71.020927 -0.000119 0.000060 0.001534 0.001777 -8.378850 71.020927
[L_front_hand03_02]
24 71.020905 -0.000060 0.000060 0.001534 0.001777 -8.378850 71.020905
25 71.020905 -0.000060 0.000060 0.001534 0.001777 -8.378850 71.020905
[R_forearm]
24 322.776428 -0.000060 0.000030 0.189011 -0.096733 -63.095341 322.776428
25 322.776428 -0.000060 0.000030 0.202568 -0.063697 -72.764351 322.776428
[R_front_hand]
24 238.847015 -0.006795 2.210259 -0.912301 1.465091 -20.710676 238.857239
25 238.847015 -0.006795 2.210259 -1.021912 1.390247 -25.106596 238.857239
[R_weapon_bone]
24 155.664093 0.002503 -0.000030 0.002747 0.002450 -137.059357 155.664078
25 155.664093 0.002503 -0.000030 0.002784 0.002408 -135.337601 155.664078
[R_front_hand01_01]
24 87.624611 14.231146 22.918642 -116.951118 3.222921 -1.180207 91.683487
25 87.624611 14.231146 22.918642 -116.953400 3.298811 -1.218872 91.683487
[R_front_hand02_01]
24 89.356956 14.367283 -19.491137 118.411629 -3.985067 0.757141 92.579636
25 89.356956 14.367283 -19.491137 118.414993 -4.060497 0.717492 92.579636
[R_front_hand03_01]
24 87.286232 -22.307278 -0.143439 -0.387354 -0.232491 3.927651 90.091743
25 87.286232 -22.307278 -0.143439 -0.387519 -0.232215 4.009302 90.091743
[R_front_hand01_02]
24 71.020905 0.000060 0.000119 0.001777 0.001534 8.377220 71.020905
25 71.020905 0.000060 0.000119 0.001777 0.001534 8.377220 71.020905
[R_front_hand02_02]
24 71.020844 -0.000030 -0.000119 0.001777 0.001534 8.377220 71.020836
25 71.020844 -0.000030 -0.000119 0.001777 0.001534 8.377220 71.020836
[R_front_hand03_02]
24 71.020905 0.000000 0.000030 0.001777 0.001534 8.377220 71.020905
25 71.020905 0.000000 0.000030 0.001777 0.001534 8.377220 71.020905
[null_rope01_connect]
24 328.732483 0.000000 -0.000238 -139.275146 -51.772667 174.043198 328.732483
25 328.732483 0.000000 -0.000238 -139.004547 -51.791237 173.894684 328.732483
[Rope1_Seg01]
24 0.000055 0.000000 0.000000 98.205513 52.519997 117.132652 0.000055
25 0.000051 0.000000 0.000000 101.971458 49.960213 122.144714 0.000051
[Rope1_Seg02]
24 139.999863 -0.000179 0.000000 -0.847658 -9.129092 11.784103 139.999863
25 139.999863 -0.000179 0.000000 -0.713930 -8.916343 8.080524 139.999863
[Rope1_Seg03]
24 139.999924 0.000060 -0.000060 -0.110361 -9.042405 13.925796 139.999924
25 139.999924 0.000060 -0.000060 -2.091715 -13.138014 12.049191 139.999924
[Rope1_Seg04]
24 139.999924 -0.000060 -0.000119 -0.148344 -9.601104 12.556110 139.999924
25 139.999924 -0.000060 -0.000119 -4.906065 -16.783192 15.265543 139.999924
[Rope1_Seg05]
24 139.999832 0.000119 -0.000060 -6.390042 -10.103119 4.759979 139.999832
25 139.999832 0.000119 -0.000060 -2.427397 -6.362750 4.983483 139.999832
[Rope1_Seg06]
24 139.999954 0.000119 -0.000060 -5.140359 -5.643856 1.905839 139.999954
25 139.999954 0.000119 -0.000060 -1.067599 -2.214661 1.570702 139.999954
[Rope1_Seg07]
24 139.999985 0.000060 0.000000 -3.418264 -3.362666 1.191049 139.999985
25 139.999985 0.000060 0.000000 -1.081081 -1.993550 1.385777 139.999985
[Rope1_Seg09]
24 121.602913 0.000119 -0.000089 -89.790619 -1.359656 0.847385 121.602913
25 121.602913 0.000119 -0.000089 -89.790619 -1.359656 0.847385 121.602913
[L_mid_hand01]
24 103.859421 1.038730 8.195221 127.141212 -65.755234 -35.158455 104.187431
25 103.859421 1.038730 8.195221 125.662300 -64.835800 -33.535522 104.187431
[L_mid_hand02]
24 105.572853 -4.139662 -10.864139 -166.774551 42.914829 -70.363121 106.211075
25 105.572853 -4.139662 -10.864139 -165.742920 42.641731 -68.839920 106.211075
[L_mid_hand03]
24 104.641464 17.579376 -3.913581 -6.755700 17.550638 72.447609 106.179977
25 104.641464 17.579376 -3.913581 -7.113193 17.410580 71.254120 106.179977
[null_rope02_connect]
24 328.732849 0.000179 -0.000119 -125.507843 40.876289 18.981379 328.732849
25 328.732849 0.000179 -0.000119 -125.233665 40.640774 19.192690 328.732849
[Rope2_Seg01]
24 0.000095 0.000153 0.000049 -63.878914 31.094238 16.718313 0.000186
25 0.000095 0.000153 0.000051 -63.751156 32.066635 18.317600 0.000187
[Rope2_Seg02]
24 139.999741 -0.000060 -0.000119 -1.618039 -6.619965 5.448000 139.999756
25 139.999741 -0.000060 -0.000119 -1.736132 -7.326608 6.053233 139.999756
[Rope2_Seg03]
24 140.000107 0.000030 0.000000 -2.680963 -13.335676 10.934277 140.000107
25 140.000107 0.000030 0.000000 -2.613363 -13.408672 11.228897 140.000107
[Rope2_Seg04]
24 139.999802 0.000000 -0.000060 -5.339994 -26.745594 32.595108 139.999802
25 139.999802 0.000000 -0.000060 -3.225791 -21.344357 26.873314 139.999802
[Rope2_Seg05]
24 139.999985 -0.000060 0.000119 -8.181861 -22.104036 -0.190938 139.999985
25 139.999985 -0.000060 0.000119 -6.780529 -23.382408 1.198951 139.999985
[Rope2_Seg06]
24 139.999893 -0.000030 -0.000119 -7.706884 -3.648342 -6.342214 139.999893
25 139.999893 -0.000030 -0.000119 -8.542775 -6.735382 -6.294899 139.999893
[Rope2_Seg07]
24 139.999893 0.000060 -0.000060 -2.324100 -2.181134 -1.270186 139.999893
25 139.999893 0.000060 -0.000060 -2.846558 -3.085194 -1.361866 139.999893
[Rope2_Seg09]
24 121.338966 0.000089 -0.000060 46.365963 -1.142453 -1.122346 121.338966
25 121.338966 0.000089 -0.000060 48.212502 -1.105095 -1.159138 121.338966
[R_mid_hand01]
24 104.680779 11.144459 -10.335981 -17.799215 44.749752 68.213951 105.778534
25 104.680779 11.144459 -10.335981 -18.265680 44.595848 67.548409 105.778534
[R_mid_hand02]
24 104.070427 2.443552 8.231699 51.588829 -66.473389 36.553326 104.424065
25 104.070427 2.443552 8.231699 52.282356 -66.075729 35.791447 104.424065
[R_mid_hand03]
24 106.028137 -11.221827 -5.996406 -176.641464 15.459667 -74.863548 106.788818
25 106.028137 -11.221827 -5.996406 -176.502670 15.428352 -74.348114 106.788818
[spine02]
24 129.756927 0.001550 0.000119 -0.245322 -4.052060 -4.355547 129.756927
25 129.756927 0.001550 0.000119 -0.245322 -4.052060 -4.355547 129.756927
[spine03]
24 78.613808 0.087280 -4.898806 0.369659 4.260734 -4.885720 78.766342
25 78.613808 0.087269 -4.898805 0.369659 4.260735 -4.885721 78.766342
[pelvis]
24 169.435242 0.051022 0.000000 -0.010007 -0.191417 -1.897554 169.435257
25 169.435242 0.051022 0.000000 -0.010007 -0.191417 -1.897554 169.435257
[null_rope03_connect]
24 -1.257226 -2.466202 137.391083 -101.659874 -88.862541 -146.730789 137.418976
25 -1.257226 -2.466202 137.391083 -100.977699 -88.880402 -147.133514 137.418976
[null_rope04_connect]
24 -1.259640 -2.480268 -137.844437 -101.659874 -88.862541 -146.730789 137.872513
25 -1.259640 -2.480268 -137.844437 -100.977699 -88.880402 -147.133514 137.872513
[Rope3_Seg01]
24 0.000010 0.000014 -0.000055 176.219818 -37.693775 -13.107727 0.000058
25 0.000010 0.000013 -0.000051 175.546021 -38.563274 -13.435365 0.000053
[Rope3_Seg02]
24 139.999924 -0.000119 0.000060 -33.695587 2.141518 -18.623487 139.999924
25 139.999924 -0.000119 0.000060 -35.027149 0.555879 -20.284859 139.999924
[Rope3_Seg03]
24 139.999924 -0.000119 0.000119 -67.140808 21.729343 -22.881271 139.999924
25 139.999924 -0.000119 0.000119 -75.268417 19.699095 -25.451405 139.999924
[Rope3_Seg04]
24 139.999924 0.000119 0.000000 -15.607222 29.608932 7.358302 139.999924
25 139.999924 0.000119 0.000000 -14.634198 30.119448 9.648366 139.999924
[Rope3_Seg05]
24 139.999924 -0.000238 0.000060 -5.668800 31.375303 6.845188 139.999924
25 139.999924 -0.000238 0.000060 -1.943550 26.126051 12.746457 139.999924
[Rope3_Seg06]
24 139.999893 -0.000119 -0.000060 0.578270 12.491780 4.220240 139.999893
25 139.999893 -0.000119 -0.000060 0.739944 9.454266 5.439384 139.999893
[Rope3_Seg07]
24 139.999771 0.000060 -0.000119 0.909233 5.260157 2.078425 139.999771
25 139.999771 0.000060 -0.000119 0.823747 4.362165 2.606933 139.999771
[Rope3_Seg08]
24 139.999985 -0.000060 0.000000 0.834149 2.813457 1.061094 139.999985
25 139.999985 -0.000060 0.000000 0.757700 2.386631 1.382804 139.999985
[Rope3_Seg09]
24 90.185997 -0.000179 -0.000060 -54.204647 -1.359454 -0.846996 90.185997
25 90.185997 -0.000179 -0.000060 17.795763 -1.359544 -0.848150 90.185997
[R_rear_hand01]
24 103.366196 -6.073594 -10.757982 -163.506149 18.599667 -36.527653 104.101845
25 103.366196 -6.073594 -10.757982 -177.714188 24.565968 -73.910950 104.101845
[R_rear_hand02]
24 100.509819 12.039542 -7.992327 -32.207554 22.820917 34.642761 101.543350
25 100.509819 12.039542 -7.992327 -12.874839 36.868492 72.167213 101.543350
[R_rear_hand03]
24 101.539970 5.215704 5.435467 82.841652 -37.320400 8.218202 101.819031
25 101.539970 5.215704 5.435467 71.484573 -71.816628 21.513811 101.819031
[Rope4_Seg01]
24 -0.000018 -0.000046 -0.000125 -179.600845 -46.405834 152.607895 0.000134
25 -0.000019 -0.000051 -0.000127 178.177963 -42.425934 155.540222 0.000138
[Rope4_Seg02]
24 139.999985 0.000060 0.000119 41.043121 -19.484060 26.800026 139.999985
25 139.999985 0.000060 0.000119 49.455975 -21.465815 28.027437 139.999985
[Rope4_Seg03]
24 139.999924 0.000000 -0.000238 12.237720 7.576756 19.597019 139.999924
25 139.999924 0.000000 -0.000238 9.581394 10.905040 16.838116 139.999924
[Rope4_Seg04]
24 139.999985 0.000000 0.000119 7.164529 13.117483 21.138594 139.999985
25 139.999985 0.000000 0.000119 6.099449 16.281553 18.915108 139.999985
[Rope4_Seg05]
24 139.999802 -0.000060 -0.000119 1.021207 6.297538 8.406680 139.999802
25 139.999802 -0.000060 -0.000119 0.874786 7.522728 7.677991 139.999802
[Rope4_Seg06]
24 139.999924 0.000000 0.000060 0.207485 4.042822 5.266425 139.999924
25 139.999924 0.000000 0.000060 0.187093 4.841361 4.852218 139.999924
[Rope4_Seg07]
24 139.999802 0.000000 0.000000 -0.011022 2.758368 3.583693 139.999802
25 139.999802 0.000000 0.000000 0.003259 3.307130 3.312260 139.999802
[Rope4_Seg08]
24 139.999924 0.000000 0.000119 -1.629326 1.660013 2.159684 139.999924
25 139.999924 0.000000 0.000119 -1.614544 2.034042 2.040939 139.999924
[Rope4_Seg09]
24 90.185791 0.000060 0.000060 173.500839 2.226469 0.851310 90.185791
25 90.185791 0.000060 0.000060 85.078445 2.228020 0.851885 90.185791
[L_rear_hand01]
24 101.696655 -8.392275 -7.654577 -38.658989 -2.869247 173.402817 102.329041
25 101.696655 -8.392275 -7.654577 -38.617695 -3.477243 172.636993 102.329041
[L_rear_hand02]
24 102.726799 -1.568258 5.773216 84.297699 3.815179 175.753296 102.900848
25 102.726799 -1.568258 5.773216 84.293938 4.789022 175.657654 102.900848
[L_rear_hand03]
24 104.552910 9.721220 -10.420293 -156.197327 -6.664048 -175.862091 105.519653
25 104.552910 9.721220 -10.420293 -156.305389 -7.057854 -174.959747 105.519653
